<svg xmlns="http://www.w3.org/2000/svg" viewBox="0 0 64 64">
  <defs>
    <linearGradient id="g" x1="0" y1="0" x2="0" y2="1">
      <stop offset="0" stop-color="#e8482c"/>
      <stop offset="1" stop-color="#b3241a"/>
    </linearGradient>
  </defs>
  <rect width="64" height="64" rx="14" fill="#1c1c1c"/>
  <path fill="url(#g)" d="M32 6c-1 8-9 11-9 20 0 7 5 12 11 12s11-6 11-13c0-4-2-7-4-9 .5 3-1 5-3 5-2 0-3-2-2-4 2-4 1-8-4-11z"/>
  <path fill="#ffd166" d="M31 24c-.5 4-4 5-4 9 0 3 2.2 5.4 5 5.4s5-2.6 5-5.6c0-1.8-.9-3-1.8-4 .2 1.3-.4 2.2-1.3 2.2-.9 0-1.3-.9-.9-1.8.9-1.8.4-3.6-2-5.2z"/>
  <rect x="20" y="46" width="24" height="4" rx="2" fill="#f4f1ea"/>
  <rect x="20" y="52" width="16" height="4" rx="2" fill="#f4f1ea" opacity=".7"/>
</svg>
